<svg width="24" height="24" viewBox="0 0 24 24" fill="none" xmlns="http://www.w3.org/2000/svg">
<path fill-rule="evenodd" clip-rule="evenodd" d="M20.21 5.23994L14.36 1.99994C13.2028 1.35923 11.7972 1.35923 10.64 1.99994L4.77999 5.23994C3.55347 5.90457 2.78679 7.18494 2.77999 8.57995V14.8799C2.78426 15.4997 2.93503 16.1096 3.21999 16.6599L3.65999 17.3599C3.5559 17.7037 3.50201 18.0608 3.49999 18.4199C3.50345 19.1262 3.7006 19.818 4.06999 20.4199L2.63999 21.9999C2.34754 22.2928 2.34754 22.7671 2.63999 23.0599C2.777 23.1912 2.96028 23.2631 3.14999 23.2599C3.37147 23.2596 3.58234 23.165 3.72999 22.9999L5.09999 21.5599C6.61839 22.737 8.78248 22.5682 10.1 21.1699L10.66 21.4799C11.8173 22.1341 13.2327 22.1341 14.39 21.4799L20.24 18.2299C21.4665 17.5604 22.2325 16.2773 22.24 14.8799V8.57995C22.2272 7.17852 21.4481 5.8966 20.21 5.23994ZM7.35999 20.8299C6.08647 20.748 5.09548 19.6911 5.09548 18.4149C5.09548 17.1388 6.08647 16.0819 7.35999 15.9999C8.63352 16.0819 9.62451 17.1388 9.62451 18.4149C9.62451 19.6911 8.63352 20.748 7.35999 20.8299ZM19.48 16.8799C20.2089 16.4759 20.6665 15.7132 20.68 14.8799V8.54994C20.6665 7.71664 20.2089 6.95402 19.48 6.54994L13.63 3.29994C12.926 2.90054 12.064 2.90054 11.36 3.29994L5.50999 6.57994C4.78109 6.98402 4.32352 7.74664 4.30999 8.57995V14.8799C4.31427 15.2012 4.38581 15.518 4.51999 15.8099C5.23315 14.9838 6.2686 14.5061 7.35999 14.4999C8.63781 14.5409 9.81585 15.2009 10.5181 16.2692C11.2204 17.3375 11.3591 18.6806 10.89 19.8699L11.36 20.1299C12.064 20.5294 12.926 20.5294 13.63 20.1299L19.48 16.8799Z" fill="white"/>
<path d="M17.35 7.66995L13 10.0999C12.6906 10.2786 12.3094 10.2786 12 10.0999L7.63999 7.66995C7.28353 7.4761 6.83744 7.60546 6.63999 7.95995C6.45185 8.31701 6.58001 8.75894 6.92999 8.95995L11.3 11.3899C11.4523 11.4635 11.6093 11.527 11.77 11.5799V17.2799C11.77 17.6942 12.1058 18.0299 12.52 18.0299C12.9342 18.0299 13.27 17.6942 13.27 17.2799V11.5899C13.4281 11.543 13.582 11.4828 13.73 11.4099L18.08 8.99995C18.4322 8.79385 18.555 8.34401 18.3563 7.98756C18.1577 7.63112 17.7105 7.49887 17.35 7.68995V7.66995Z" fill="white"/>
</svg>
