<svg width="24" height="24" viewBox="0 0 24 24" fill="none" xmlns="http://www.w3.org/2000/svg">
<path fill-rule="evenodd" clip-rule="evenodd" d="M21.74 14.7399L21.88 15.4299C22.0324 16.0194 21.9081 16.6462 21.5422 17.1328C21.1762 17.6194 20.6086 17.9128 20 17.9299H16.19C16.1909 19.5485 14.9077 20.876 13.29 20.9299H4.99998C4.08452 20.9148 3.2261 20.4824 2.66899 19.7558C2.11188 19.0292 1.91706 18.088 2.13998 17.1999L2.34998 16.1999C2.59417 14.8224 3.78112 13.8116 5.17998 13.7899H13.12C13.4743 13.3664 13.9978 13.1212 14.55 13.1199H19.84C20.774 13.1497 21.5629 13.8224 21.74 14.7399ZM19.98 16.4199C20.102 16.4154 20.2156 16.3568 20.29 16.2599C20.4208 16.128 20.4866 15.945 20.47 15.7599L20.33 15.0699C20.3029 14.8464 20.1241 14.6718 19.9 14.6499H14.61C14.4949 14.6507 14.3871 14.7065 14.32 14.7999C14.0332 15.1302 13.6174 15.3199 13.18 15.3199H5.23998C4.5554 15.3366 3.98177 15.8428 3.87998 16.5199L3.66998 17.5199C3.56741 18.0125 3.68825 18.5251 3.99998 18.9199C4.24348 19.227 4.60842 19.4132 4.99998 19.4299H13.26C14.0648 19.3765 14.6833 18.6962 14.66 17.8899C14.6763 17.0733 15.3431 16.4198 16.16 16.4199H19.98Z" fill="white"/>
<path fill-rule="evenodd" clip-rule="evenodd" d="M13.1 7.99995C13.1 10.2091 11.3091 11.9999 9.09998 11.9999C6.89084 11.9999 5.09998 10.2091 5.09998 7.99995V6.42995C5.09998 4.57427 6.6043 3.06995 8.45998 3.06995H9.76998C11.6139 3.08641 13.1001 4.58592 13.1 6.42995V7.99995ZM8.45998 4.56995C7.43273 4.56995 6.59998 5.4027 6.59998 6.42995L6.62998 7.99995C6.78957 9.25912 7.86073 10.2031 9.12998 10.2031C10.3992 10.2031 11.4704 9.25912 11.63 7.99995V6.42995C11.63 5.4027 10.7972 4.56995 9.76998 4.56995H8.45998Z" fill="white"/>
<path fill-rule="evenodd" clip-rule="evenodd" d="M20.68 8.24995C20.68 9.9068 19.3368 11.2499 17.68 11.2499C16.0231 11.2499 14.68 9.9068 14.68 8.24995V7.09995C14.6798 5.72366 15.7839 4.60179 17.16 4.57995H18.16C19.5517 4.57995 20.68 5.70819 20.68 7.09995V8.24995ZM17.18 6.09995C16.6277 6.09995 16.18 6.54766 16.18 7.09995V8.24995C16.18 9.07837 16.8516 9.74995 17.68 9.74995C18.5084 9.74995 19.18 9.07837 19.18 8.24995V7.09995C19.18 6.54766 18.7323 6.09995 18.18 6.09995H17.18Z" fill="white"/>
</svg>
